<svg xmlns="http://www.w3.org/2000/svg" viewBox="0 0 900 620" role="img" aria-labelledby="title desc">
  <title id="title">Apercu design Manga</title>
  <desc id="desc">Illustration style manga pour collection PC personnalise</desc>
  <defs>
    <linearGradient id="bg" x1="0" x2="1" y1="0" y2="1">
      <stop offset="0" stop-color="#ff375f"/>
      <stop offset="0.52" stop-color="#5218b5"/>
      <stop offset="1" stop-color="#07090f"/>
    </linearGradient>
    <filter id="glow"><feGaussianBlur stdDeviation="7" result="b"/><feMerge><feMergeNode in="b"/><feMergeNode in="SourceGraphic"/></feMerge></filter>
  </defs>
  <rect width="900" height="620" fill="url(#bg)"/>
  <path d="M0 470 C170 370 260 530 430 420 C590 320 720 360 900 250 L900 620 L0 620 Z" fill="#07090f" opacity=".72"/>
  <circle cx="650" cy="155" r="112" fill="#fff" opacity=".10"/>
  <circle cx="650" cy="155" r="70" fill="#ffb703" opacity=".34" filter="url(#glow)"/>
  <path d="M380 165 L300 410 L460 350 L548 445 L524 230 Z" fill="#111827" stroke="#fff" stroke-opacity=".24" stroke-width="8"/>
  <path d="M430 118 L520 236 L455 242 L500 365 L352 214 L418 209 Z" fill="#ffffff" opacity=".88"/>
  <path d="M150 118 H414" stroke="#fff" stroke-width="18" stroke-linecap="round" opacity=".18"/>
  <path d="M95 180 H330" stroke="#fff" stroke-width="12" stroke-linecap="round" opacity=".2"/>
  <text x="70" y="535" fill="#fff" font-family="Verdana, Geneva, sans-serif" font-size="84" font-weight="900">MANGA</text>
</svg>
